<svg width="24" height="20" viewBox="0 0 24 20" fill="none" xmlns="http://www.w3.org/2000/svg">
	<path fill-rule="evenodd" clip-rule="evenodd" d="M0.75 1.78857C0.75 1.09822 1.30964 0.538574 2 0.538574H22C22.6904 0.538574 23.25 1.09822 23.25 1.78857C23.25 2.47893 22.6904 3.03857 22 3.03857H2C1.30964 3.03857 0.75 2.47893 0.75 1.78857Z" fill="black"/>
	<path fill-rule="evenodd" clip-rule="evenodd" d="M10.75 10.1219C10.75 9.43155 11.3096 8.87191 12 8.87191H22C22.6904 8.87191 23.25 9.43155 23.25 10.1219C23.25 10.8123 22.6904 11.3719 22 11.3719H12C11.3096 11.3719 10.75 10.8123 10.75 10.1219Z" fill="black"/>
	<path fill-rule="evenodd" clip-rule="evenodd" d="M0.75 18.4552C0.75 17.7649 1.30964 17.2052 2 17.2052H22C22.6904 17.2052 23.25 17.7649 23.25 18.4552C23.25 19.1456 22.6904 19.7052 22 19.7052H2C1.30964 19.7052 0.75 19.1456 0.75 18.4552Z" fill="black"/>
</svg>
