<svg width="24" height="24" viewBox="0 0 24 24" fill="none" xmlns="http://www.w3.org/2000/svg">
	<path fill-rule="evenodd" clip-rule="evenodd" d="M22.8773 1.08149C23.3691 1.56599 23.3749 2.35743 22.8904 2.8492L2.89044 23.1492C2.40593 23.641 1.6145 23.6469 1.12272 23.1623C0.630945 22.6778 0.625054 21.8864 1.10956 21.3946L21.1096 1.09464C21.5941 0.602869 22.3855 0.596978 22.8773 1.08149Z" fill="black"/>
	<path fill-rule="evenodd" clip-rule="evenodd" d="M1.12272 1.08149C1.6145 0.596978 2.40593 0.602869 2.89044 1.09464L22.8904 21.3946C23.3749 21.8864 23.3691 22.6778 22.8773 23.1623C22.3855 23.6469 21.5941 23.641 21.1096 23.1492L1.10956 2.8492C0.625054 2.35743 0.630945 1.56599 1.12272 1.08149Z" fill="black"/>
</svg>
