<svg xmlns="http://www.w3.org/2000/svg" version="1.1" width="71" height="53"><svg width="71" height="53" viewBox="0 0 71 53" fill="none" xmlns="http://www.w3.org/2000/svg">
<g clip-path="url(#clip0_601_3542)">
<path d="M32.0196 21.9527C31.9593 21.7447 31.874 21.5599 31.7649 21.3986C31.6559 21.2373 31.522 21.1007 31.3657 20.9876C31.2081 20.8743 31.0308 20.7885 30.8299 20.7287C30.629 20.6688 30.4084 20.639 30.1667 20.639C29.7151 20.639 29.3184 20.7509 28.977 20.9719C28.6356 21.1944 28.3703 21.517 28.1799 21.941C27.9895 22.3651 27.8949 22.8814 27.8949 23.4915C27.8949 24.1017 27.9882 24.6206 28.176 25.0486C28.3624 25.4765 28.6277 25.8017 28.9704 26.0255C29.3131 26.2491 29.7177 26.361 30.1839 26.361C30.6067 26.361 30.9691 26.2856 31.2699 26.136C31.5706 25.9864 31.8004 25.7744 31.9606 25.5013C32.1209 25.2281 32.1996 24.9042 32.1996 24.5308L32.5791 24.5868H30.2994V23.1924H34V24.2954C34 25.0655 33.8358 25.7263 33.5075 26.2779C33.1792 26.8293 32.7275 27.2546 32.1523 27.5525C31.5771 27.8504 30.9179 28 30.1746 28C29.346 28 28.6172 27.818 27.9895 27.455C27.3618 27.0908 26.8732 26.5744 26.524 25.9019C26.1747 25.2307 26 24.4332 26 23.5085C26 22.7983 26.1037 22.1648 26.3125 21.6068C26.5214 21.0486 26.8141 20.5765 27.1911 20.1889C27.5679 19.8012 28.0066 19.5059 28.5082 19.303C29.0085 19.1001 29.5521 19 30.1365 19C30.6369 19 31.1044 19.0715 31.5351 19.2158C31.9672 19.3603 32.3506 19.5632 32.6855 19.8259C33.0203 20.0887 33.2948 20.3996 33.5075 20.7599C33.7203 21.1203 33.8568 21.5182 33.9173 21.9514H32.017L32.0196 21.9527Z" fill="#2F5CB5"></path>
<path d="M19.9991 37.7052C19.9837 38.2595 19.8429 38.8607 19.4275 39.2366C18.8326 39.7764 17.8751 39.962 17.0647 39.9957C16.3898 40.0235 15.684 39.9187 15.0827 39.6222C14.9962 39.5801 14 39.0343 14 39.033L14.8027 37.9209C15.1975 38.08 15.3924 38.2703 15.8144 38.4041C16.2363 38.5378 16.657 38.6053 17.075 38.6053C17.3616 38.6053 17.5913 38.5691 17.7654 38.4969C17.9396 38.4246 18.0674 38.3269 18.1487 38.204C18.2299 38.0811 18.27 37.9401 18.27 37.7811C18.27 37.5859 18.199 37.4197 18.0545 37.2823C17.9112 37.1449 17.719 37.016 17.4789 36.8967C17.2389 36.7774 16.9641 36.6497 16.6544 36.5124C16.4609 36.4255 16.2518 36.322 16.0273 36.2027C15.8027 36.0834 15.5872 35.9351 15.3833 35.758C15.1781 35.581 15.0091 35.3664 14.8775 35.1122C14.7459 34.8592 14.68 34.5555 14.68 34.2014C14.68 33.7386 14.7936 33.3435 15.0233 33.0133C15.2517 32.6843 15.5769 32.4337 15.9989 32.2602C16.4209 32.0867 16.9176 32 17.4918 32C17.9255 32 18.3371 32.047 18.728 32.141C19.1191 32.2349 19.5268 32.3687 19.9539 32.5421L19.3849 33.8218C19.0055 33.6772 18.6648 33.5652 18.3629 33.4856C18.0609 33.4061 17.7512 33.3663 17.4338 33.3663C17.2171 33.3663 17.0312 33.3989 16.8764 33.4639C16.7215 33.529 16.6028 33.6194 16.5215 33.735C16.4401 33.8507 16.4002 33.9881 16.4002 34.1471C16.4002 34.3278 16.4583 34.482 16.5743 34.6086C16.6905 34.7351 16.8647 34.8568 17.097 34.9713C17.3293 35.0869 17.6196 35.2243 17.9681 35.3834C18.3938 35.5713 18.7552 35.7665 19.0545 35.9689C19.3526 36.1714 19.5823 36.4099 19.7462 36.6847C19.9294 36.9931 20.0094 37.3497 19.9991 37.7052Z" fill="#2F5CB5"></path>
<path d="M24.8405 40H23.1595V33.4118H21V32H27V33.4118H24.8405V40Z" fill="#2F5CB5"></path>
<path d="M33 40H28V32H33V33.3893H29.837V35.1484H32.781V36.5379H29.837V38.5995H33V40Z" fill="#2F5CB5"></path>
<path d="M46 32.0012L43.7417 40H41.6075L40.404 35.799C40.3792 35.7168 40.3475 35.5936 40.3117 35.4293C40.2744 35.265 40.2331 35.0857 40.1876 34.8915C40.1421 34.6974 40.1021 34.5132 40.069 34.3364C40.0359 34.1609 40.011 34.0253 39.9945 33.9269C39.9862 34.0239 39.9629 34.1609 39.9256 34.3364C39.8884 34.5119 39.8484 34.6949 39.807 34.8853C39.7657 35.0758 39.7243 35.255 39.683 35.423C39.6416 35.5911 39.6084 35.7193 39.5837 35.809L38.3925 39.9988H36.2583L34 32H35.8489L36.978 36.3691C37.0111 36.4961 37.0483 36.6516 37.0897 36.8346C37.131 37.0176 37.1724 37.208 37.2137 37.4059C37.2551 37.6039 37.2938 37.7968 37.3309 37.9822C37.3681 38.169 37.3944 38.3295 37.4109 38.464C37.4274 38.322 37.4522 38.1602 37.4854 37.9761C37.5185 37.7931 37.5557 37.6064 37.597 37.4159C37.6384 37.2254 37.6769 37.0462 37.7142 36.8781C37.7514 36.7101 37.7859 36.5782 37.8204 36.4811L39.1108 32H40.8852L42.1756 36.4811C42.2004 36.5782 42.2335 36.7101 42.2748 36.8781C42.3163 37.0462 42.3576 37.2279 42.3989 37.4221C42.4404 37.6163 42.4775 37.8056 42.5107 37.9872C42.5437 38.1702 42.5685 38.3295 42.585 38.464C42.6098 38.2773 42.6471 38.0545 42.6968 37.7981C42.7464 37.5404 42.8029 37.2815 42.865 37.0189C42.927 36.7575 42.978 36.5408 43.0194 36.3691L44.1485 32H45.9972L46 32.0012Z" fill="#2F5CB5"></path>
<path d="M52.1101 40L51.5072 38.1032H48.4927L47.8898 40H46L48.9217 32H51.0667L54 40H52.1101ZM50.4869 34.834C50.4483 34.7075 50.398 34.5477 50.3361 34.3543C50.2744 34.1609 50.2125 33.9637 50.1507 33.7629C50.0888 33.562 50.0385 33.3873 49.9999 33.2385C49.9613 33.3873 49.9085 33.572 49.844 33.7914C49.7783 34.0109 49.7166 34.2191 49.6586 34.4163C49.6006 34.6133 49.5555 34.7534 49.5246 34.8353L48.9333 36.6874H51.0898L50.4869 34.8353V34.834Z" fill="#2F5CB5"></path>
<path d="M57.9209 32C58.8285 32 59.577 32.0884 60.1664 32.2639C60.7559 32.4395 61.1956 32.7046 61.4857 33.0594C61.7758 33.4143 61.9209 33.8599 61.9209 34.3978C61.9209 34.7637 61.8335 35.0837 61.6603 35.3563C61.4873 35.629 61.2581 35.8605 60.9726 36.051C60.6873 36.2416 60.38 36.3971 60.0526 36.5154L63 40H60.6421L58.2561 36.93H57.1192V40H55V32H57.9193H57.9209ZM57.7664 33.3893H57.1209V35.5519H57.8086C58.5104 35.5519 59.0125 35.4584 59.3165 35.2717C59.6207 35.0849 59.7718 34.8086 59.7718 34.4426C59.7718 34.1886 59.6985 33.9857 59.5551 33.8313C59.4101 33.6781 59.1902 33.5661 58.8955 33.4952C58.6007 33.4242 58.2249 33.3893 57.7664 33.3893Z" fill="#2F5CB5"></path>
<path d="M70 35.9216C70 36.818 69.8446 37.5686 69.5339 38.1737C69.2231 38.7787 68.7716 39.2344 68.1805 39.5407C67.5894 39.847 66.8789 40 66.0469 40H64V32H66.2698C67.0265 32 67.6829 32.1493 68.2402 32.4481C68.7975 32.747 69.2299 33.1864 69.5372 33.7653C69.8446 34.3443 69.9978 35.0638 69.9978 35.9228L70 35.9216ZM68.4091 35.9664C68.4091 35.3763 68.3314 34.8907 68.176 34.5098C68.0207 34.1289 67.7888 33.8474 67.4813 33.6644C67.174 33.4814 66.7968 33.3893 66.3509 33.3893H65.5302V38.5995H66.1888C66.9386 38.5995 67.496 38.3791 67.8607 37.9384C68.2256 37.4977 68.4079 36.8404 68.4079 35.9664H68.4091Z" fill="#2F5CB5"></path>
<path d="M43.9985 23.4952C43.9985 24.1727 43.908 24.7877 43.7268 25.3374C43.5457 25.8884 43.2723 26.3647 42.9058 26.7633C42.5392 27.1633 42.0723 27.4694 41.5036 27.6816C40.935 27.8939 40.2659 28 39.4993 28C38.7326 28 38.0636 27.8912 37.4949 27.6749C36.9262 27.4585 36.458 27.1524 36.0928 26.7565C35.7262 26.3605 35.453 25.8857 35.2717 25.3307C35.0906 24.7755 35 24.1592 35 23.4817C35 22.5755 35.1602 21.7878 35.4837 21.1183C35.8056 20.449 36.299 19.9293 36.9652 19.5565C37.6315 19.1851 38.4804 19 39.5132 19C40.546 19 41.3795 19.1864 42.0402 19.5565C42.7024 19.9279 43.1929 20.4504 43.5163 21.1238C43.8383 21.7973 44 22.5864 44 23.4939L43.9985 23.4952ZM37.1033 23.4952C37.1033 24.1074 37.1868 24.634 37.3542 25.0749C37.5214 25.5156 37.782 25.8545 38.1347 26.0912C38.4874 26.3279 38.9418 26.4462 39.4979 26.4462C40.054 26.4462 40.5321 26.3279 40.8806 26.0912C41.229 25.8545 41.4841 25.5156 41.6486 25.0749C41.8117 24.634 41.8939 24.1074 41.8939 23.4952C41.8939 22.5728 41.7085 21.8504 41.3377 21.3278C40.9669 20.8054 40.3578 20.5442 39.5119 20.5442C38.9473 20.5442 38.4887 20.6626 38.1361 20.8993C37.7835 21.136 37.5228 21.4748 37.3555 21.9156C37.1883 22.3565 37.1033 22.8831 37.1033 23.4952Z" fill="#2F5CB5"></path>
<path d="M53 23.4952C53 24.1727 52.92 24.7877 52.7589 25.3374C52.5977 25.8884 52.3554 26.3647 52.0294 26.7633C51.7034 27.1633 51.2878 27.4694 50.7825 27.6816C50.2772 27.8939 49.6822 28 49.0001 28C48.3178 28 47.724 27.8912 47.2175 27.6749C46.7122 27.4585 46.2966 27.1524 45.9706 26.7565C45.6447 26.3605 45.4023 25.8857 45.2412 25.3307C45.08 24.7755 45 24.1592 45 23.4817C45 22.5755 45.143 21.7878 45.429 21.1183C45.7149 20.449 46.1548 19.9293 46.7461 19.5565C47.3387 19.1851 48.0936 19 49.0109 19C49.9282 19 50.6698 19.1864 51.2575 19.5565C51.8452 19.9279 52.2827 20.4504 52.5686 21.1238C52.8546 21.7973 52.9976 22.5864 52.9976 23.4939L53 23.4952ZM46.8721 23.4952C46.8721 24.1074 46.9461 24.634 47.0951 25.0749C47.2442 25.5156 47.4757 25.8545 47.7895 26.0912C48.1033 26.3279 48.5068 26.4462 49.0012 26.4462C49.4956 26.4462 49.9209 26.3279 50.23 26.0912C50.5401 25.8545 50.7668 25.5156 50.9122 25.0749C51.0576 24.634 51.1303 24.1074 51.1303 23.4952C51.1303 22.5728 50.9654 21.8504 50.6359 21.3278C50.3063 20.8054 49.7658 20.5442 49.0122 20.5442C48.5104 20.5442 48.102 20.6626 47.7882 20.8993C47.4744 21.136 47.243 21.4748 47.0939 21.9156C46.9449 22.3565 46.8721 22.8831 46.8721 23.4952Z" fill="#2F5CB5"></path>
<path d="M62 22.9215C62 23.8179 61.7927 24.5686 61.3783 25.1736C60.964 25.7786 60.3618 26.2344 59.5751 26.5406C58.7868 26.8469 57.8378 27 56.7296 27H54V19H57.0271C58.0359 19 58.9129 19.1493 59.6561 19.4481C60.3994 19.7469 60.976 20.1864 61.3858 20.7653C61.7957 21.3442 62 22.0638 62 22.9228V22.9215ZM59.8784 22.9664C59.8784 22.3763 59.7747 21.8908 59.5675 21.5098C59.3604 21.1288 59.0509 20.8475 58.6411 20.6645C58.2312 20.4815 57.7282 20.3894 57.1336 20.3894H56.039V25.5994H56.9173C57.9174 25.5994 58.6607 25.379 59.1471 24.9384C59.6335 24.4976 59.8768 23.8403 59.8768 22.9664H59.8784Z" fill="#2F5CB5"></path>
<path d="M15.8921 23.3783C15.8921 23.3783 26.3292 9.43323 44.4413 8.1154C62.5535 6.79756 68.9996 15.0118 70.7399 19.5759C70.7399 19.5759 70.3302 5.88475 51.7067 4.5659C51.7067 4.5659 27.9669 2.63851 15.8921 23.3783Z" fill="#2F5CB5"></path>
<path d="M28.4664 51.9113C24.438 52.1169 18.4876 48.3998 15.4829 46.1548C3.59333 37.2722 7.52581 23.7254 16.5104 14.8106C26.5073 4.89183 40.2648 0.813847 54.1391 3.17823C53.7422 3.11097 53.2313 2.70933 52.8552 2.55019C51.5741 2.0093 50.218 1.63797 48.8572 1.36137C34.2944 -1.596 18.3878 4.84163 8.6103 15.6177C8.02532 16.2628 7.45648 16.923 6.90474 17.5965C2.61994 22.8283 -0.438861 29.5103 1.03024 36.3752C1.41579 38.1769 2.09099 39.9094 2.97511 41.5255C7.75942 50.2631 18.3859 52.2789 27.5643 51.9492C27.8643 51.9388 28.1644 51.9255 28.4645 51.9094L28.4664 51.9113Z" fill="#2F5CB5"></path>
</g>
<defs>
<clipPath id="SvgjsClipPath1005">
<rect width="71" height="52" fill="white" transform="translate(0 0.244141)"></rect>
</clipPath>
</defs>
</svg><style>@media (prefers-color-scheme: light) { :root { filter: none; } }
@media (prefers-color-scheme: dark) { :root { filter: none; } }
</style></svg>
