<svg width="308" height="240" viewBox="0 0 308 240" fill="none" xmlns="http://www.w3.org/2000/svg">
	<g clip-path="url(#clip0_177_712)">
		<path d="M55.454 171.53C55.3464 172.446 55.0052 173.155 54.4341 173.65C53.8629 174.148 53.1026 174.396 52.1531 174.396C51.1258 174.396 50.3024 174.03 49.6831 173.295C49.0637 172.561 48.7559 171.578 48.7559 170.349V169.514C48.7559 168.709 48.9005 168 49.1898 167.391C49.4791 166.782 49.8871 166.313 50.4174 165.984C50.9478 165.656 51.5597 165.493 52.257 165.493C53.1805 165.493 53.9222 165.752 54.4786 166.265C55.0349 166.778 55.3613 167.491 55.454 168.399H54.3005C54.2004 167.705 53.9853 167.206 53.6515 166.896C53.3177 166.586 52.8541 166.431 52.257 166.431C51.5226 166.431 50.9478 166.701 50.5324 167.24C50.117 167.779 49.9093 168.547 49.9093 169.544V170.382C49.9093 171.324 50.1059 172.069 50.5027 172.627C50.8958 173.181 51.4485 173.462 52.1568 173.462C52.7948 173.462 53.2843 173.318 53.6255 173.029C53.9667 172.741 54.193 172.243 54.3042 171.527H55.4577L55.454 171.53Z" fill="white"/>
		<path d="M66.1614 170.227C66.1614 171.076 66.0168 171.815 65.7312 172.45C65.4456 173.081 65.0376 173.565 64.511 173.897C63.9843 174.23 63.3724 174.396 62.6714 174.396C61.9705 174.396 61.377 174.23 60.8467 173.894C60.3163 173.558 59.9047 173.081 59.6117 172.461C59.3187 171.841 59.1666 171.121 59.1592 170.305V169.681C59.1592 168.846 59.3038 168.111 59.5968 167.473C59.8898 166.834 60.2978 166.346 60.8318 166.007C61.3622 165.667 61.9742 165.497 62.6566 165.497C63.339 165.497 63.9695 165.663 64.4999 165.999C65.0302 166.335 65.4419 166.819 65.7275 167.458C66.0131 168.093 66.1577 168.835 66.1577 169.681V170.227H66.1614ZM65.0191 169.666C65.0191 168.639 64.8114 167.849 64.396 167.303C63.9806 166.753 63.4021 166.479 62.6566 166.479C61.9111 166.479 61.3622 166.753 60.9431 167.303C60.5277 167.853 60.3126 168.614 60.3015 169.592V170.227C60.3015 171.224 60.5129 172.003 60.932 172.576C61.3511 173.144 61.9297 173.428 62.6677 173.428C63.4058 173.428 63.9806 173.159 64.3886 172.624C64.7966 172.084 65.0043 171.316 65.0154 170.312V169.67L65.0191 169.666Z" fill="white"/>
		<path d="M71.8138 165.615L74.6585 172.683L77.5031 165.615H78.9904V174.278H77.8443V170.903L77.9519 167.262L75.0961 174.278H74.2171L71.365 167.281L71.48 170.903V174.278H70.334V165.615H71.8175H71.8138Z" fill="white"/>
		<path d="M84.9466 165.615L87.7913 172.683L90.6359 165.615H92.1232V174.278H90.9771V170.903L91.0847 167.262L88.2289 174.278H87.3499L84.4978 167.281L84.6128 170.903V174.278H83.4668V165.615H84.9503H84.9466Z" fill="white"/>
		<path d="M101.514 170.275H97.7417V173.344H102.122V174.278H96.5957V165.615H102.063V166.549H97.7417V169.341H101.514V170.275Z" fill="white"/>
		<path d="M109.191 170.774H107.148V174.278H105.994V165.615H108.876C109.855 165.615 110.608 165.837 111.138 166.28C111.665 166.723 111.928 167.369 111.928 168.218C111.928 168.758 111.784 169.226 111.491 169.629C111.198 170.028 110.79 170.331 110.267 170.526L112.31 174.204V174.274H111.079L109.191 170.77V170.774ZM107.148 169.839H108.909C109.48 169.839 109.933 169.692 110.27 169.4C110.608 169.105 110.775 168.713 110.775 168.218C110.775 167.683 110.615 167.269 110.293 166.985C109.97 166.701 109.51 166.553 108.902 166.549H107.144V169.839H107.148Z" fill="white"/>
		<path d="M122.383 171.53C122.276 172.446 121.935 173.155 121.364 173.65C120.792 174.148 120.032 174.396 119.083 174.396C118.055 174.396 117.232 174.03 116.613 173.295C115.993 172.561 115.682 171.578 115.682 170.349V169.514C115.682 168.709 115.826 168 116.116 167.391C116.405 166.782 116.813 166.313 117.343 165.984C117.874 165.656 118.486 165.493 119.183 165.493C120.106 165.493 120.848 165.752 121.404 166.265C121.961 166.778 122.287 167.491 122.38 168.399H121.226C121.126 167.705 120.911 167.206 120.577 166.896C120.243 166.586 119.78 166.431 119.183 166.431C118.448 166.431 117.874 166.701 117.458 167.24C117.043 167.779 116.835 168.547 116.835 169.544V170.382C116.835 171.324 117.032 172.069 117.425 172.627C117.818 173.181 118.371 173.462 119.079 173.462C119.717 173.462 120.206 173.318 120.548 173.029C120.889 172.741 121.115 172.243 121.226 171.527H122.38L122.383 171.53Z" fill="white"/>
		<path d="M127.627 174.278H126.481V165.615H127.627V174.278Z" fill="white"/>
		<path d="M137.089 172.011H133.443L132.624 174.278H131.44L134.764 165.615H135.769L139.099 174.278H137.923L137.093 172.011H137.089ZM133.788 171.076H136.748L135.264 167.026L133.788 171.076Z" fill="white"/>
		<path d="M143.868 173.344H147.992V174.278H142.715V165.615H143.868V173.344Z" fill="white"/>
		<path d="M248.357 170.246C247.374 169.965 246.658 169.618 246.209 169.208C245.761 168.798 245.538 168.292 245.538 167.687C245.538 167.004 245.813 166.439 246.358 165.995C246.907 165.549 247.619 165.327 248.494 165.327C249.091 165.327 249.625 165.442 250.093 165.671C250.56 165.9 250.923 166.217 251.179 166.623C251.435 167.029 251.565 167.469 251.565 167.949H250.412C250.412 167.424 250.245 167.011 249.911 166.712C249.577 166.413 249.102 166.261 248.494 166.261C247.927 166.261 247.485 166.387 247.17 166.634C246.855 166.882 246.695 167.229 246.695 167.668C246.695 168.023 246.847 168.322 247.148 168.565C247.448 168.809 247.96 169.034 248.683 169.237C249.406 169.441 249.974 169.662 250.382 169.906C250.79 170.15 251.094 170.434 251.291 170.759C251.487 171.084 251.587 171.468 251.587 171.907C251.587 172.609 251.313 173.17 250.764 173.595C250.215 174.016 249.481 174.23 248.557 174.23C247.96 174.23 247.4 174.115 246.884 173.886C246.365 173.657 245.968 173.347 245.686 172.948C245.405 172.553 245.264 172.103 245.264 171.597H246.417C246.417 172.121 246.61 172.535 246.999 172.838C247.389 173.14 247.908 173.292 248.557 173.292C249.162 173.292 249.625 173.17 249.948 172.923C250.271 172.675 250.434 172.343 250.434 171.918C250.434 171.494 250.285 171.165 249.985 170.932C249.685 170.7 249.143 170.471 248.361 170.246H248.357Z" fill="white"/>
		<path d="M260.418 170.105H256.646V173.174H261.026V174.108H255.496V165.445H260.963V166.38H256.642V169.171H260.414V170.105H260.418Z" fill="white"/>
		<path d="M268.095 170.604H266.052V174.108H264.898V165.445H267.78C268.759 165.445 269.516 165.667 270.043 166.11C270.569 166.553 270.836 167.199 270.836 168.049C270.836 168.588 270.688 169.057 270.399 169.459C270.106 169.858 269.698 170.161 269.175 170.356L271.218 174.034V174.104H269.987L268.099 170.6L268.095 170.604ZM266.052 169.669H267.814C268.385 169.669 268.837 169.522 269.175 169.23C269.512 168.935 269.679 168.543 269.679 168.049C269.679 167.513 269.52 167.1 269.197 166.815C268.874 166.531 268.414 166.383 267.806 166.38H266.048V169.669H266.052Z" fill="white"/>
		<path d="M277.656 172.59L280.141 165.445H281.395L278.168 174.108H277.152L273.929 165.445H275.179L277.652 172.59H277.656Z" fill="white"/>
		<path d="M286.238 174.108H285.093V165.445H286.238V174.108Z" fill="white"/>
		<path d="M297.187 171.36C297.08 172.276 296.738 172.985 296.167 173.48C295.596 173.978 294.836 174.226 293.886 174.226C292.859 174.226 292.036 173.86 291.416 173.125C290.797 172.391 290.485 171.408 290.485 170.179V169.344C290.485 168.539 290.63 167.83 290.919 167.221C291.209 166.612 291.617 166.143 292.147 165.814C292.677 165.486 293.289 165.323 293.986 165.323C294.91 165.323 295.652 165.582 296.208 166.095C296.764 166.608 297.091 167.321 297.183 168.229H296.03C295.93 167.535 295.715 167.037 295.381 166.726C295.047 166.416 294.584 166.261 293.986 166.261C293.252 166.261 292.677 166.531 292.262 167.07C291.846 167.609 291.639 168.377 291.639 169.374V170.212C291.639 171.154 291.835 171.9 292.228 172.457C292.622 173.011 293.174 173.292 293.883 173.292C294.521 173.292 295.01 173.148 295.351 172.86C295.693 172.572 295.919 172.073 296.03 171.357H297.183L297.187 171.36Z" fill="white"/>
		<path d="M306.118 170.105H302.346V173.174H306.726V174.108H301.196V165.445H306.663V166.38H302.342V169.171H306.114V170.105H306.118Z" fill="white"/>
		<path d="M160.042 170.666V174.056H158.896V165.394H162.105C163.058 165.394 163.803 165.637 164.341 166.121C164.883 166.605 165.15 167.247 165.15 168.041C165.15 168.883 164.886 169.529 164.36 169.983C163.833 170.437 163.076 170.663 162.09 170.663H160.039L160.042 170.666ZM160.042 169.732H162.105C162.717 169.732 163.188 169.588 163.514 169.3C163.84 169.012 164.004 168.595 164.004 168.052C164.004 167.535 163.84 167.122 163.514 166.811C163.188 166.501 162.739 166.343 162.171 166.328H160.042V169.732Z" fill="white"/>
		<path d="M172.256 170.556H170.212V174.06H169.059V165.397H171.94C172.919 165.397 173.672 165.619 174.203 166.062C174.729 166.505 174.993 167.151 174.993 168.001C174.993 168.54 174.848 169.009 174.555 169.411C174.262 169.81 173.854 170.113 173.331 170.308L175.375 173.986V174.056H174.143L172.256 170.552V170.556ZM170.212 169.622H171.974C172.545 169.622 172.997 169.474 173.335 169.182C173.672 168.887 173.839 168.495 173.839 168.001C173.839 167.465 173.68 167.052 173.357 166.767C173.034 166.483 172.575 166.335 171.966 166.332H170.208V169.622H170.212Z" fill="white"/>
		<path d="M185.741 170.005C185.741 170.855 185.596 171.593 185.311 172.228C185.025 172.86 184.617 173.343 184.09 173.676C183.564 174.008 182.952 174.174 182.251 174.174C181.55 174.174 180.956 174.008 180.43 173.672C179.899 173.336 179.488 172.86 179.195 172.239C178.902 171.619 178.75 170.899 178.742 170.083V169.459C178.742 168.624 178.887 167.89 179.18 167.251C179.473 166.612 179.881 166.125 180.415 165.785C180.945 165.445 181.553 165.275 182.24 165.275C182.926 165.275 183.553 165.442 184.083 165.778C184.613 166.114 185.025 166.597 185.311 167.236C185.596 167.871 185.741 168.613 185.741 169.459V170.005ZM184.602 169.448C184.602 168.421 184.394 167.631 183.979 167.085C183.564 166.535 182.985 166.261 182.24 166.261C181.494 166.261 180.945 166.535 180.526 167.085C180.111 167.635 179.896 168.396 179.885 169.374V170.009C179.885 171.006 180.096 171.785 180.515 172.358C180.934 172.926 181.513 173.21 182.251 173.21C182.989 173.21 183.564 172.941 183.972 172.406C184.38 171.866 184.587 171.098 184.598 170.094V169.452L184.602 169.448Z" fill="white"/>
		<path d="M191.059 170.666V174.056H189.913V165.394H193.121C194.074 165.394 194.82 165.637 195.358 166.121C195.899 166.605 196.166 167.247 196.166 168.041C196.166 168.883 195.903 169.529 195.376 169.983C194.85 170.437 194.093 170.663 193.106 170.663H191.055L191.059 170.666ZM191.059 169.732H193.121C193.733 169.732 194.204 169.588 194.531 169.3C194.857 169.012 195.02 168.595 195.02 168.052C195.02 167.535 194.857 167.122 194.531 166.811C194.204 166.501 193.755 166.343 193.184 166.328H191.055V169.732H191.059Z" fill="white"/>
		<path d="M204.997 170.053H201.225V173.122H205.605V174.056H200.079V165.394H205.546V166.328H201.225V169.119H204.997V170.053Z" fill="white"/>
		<path d="M212.675 170.556H210.631V174.06H209.478V165.397H212.359C213.338 165.397 214.091 165.619 214.622 166.062C215.148 166.505 215.412 167.151 215.412 168.001C215.412 168.54 215.267 169.009 214.974 169.411C214.681 169.81 214.273 170.113 213.75 170.308L215.794 173.986V174.056H214.562L212.675 170.552V170.556ZM210.631 169.622H212.393C212.964 169.622 213.416 169.474 213.754 169.182C214.091 168.887 214.258 168.495 214.258 168.001C214.258 167.465 214.099 167.052 213.776 166.767C213.453 166.483 212.994 166.335 212.385 166.332H210.627V169.622H210.631Z" fill="white"/>
		<path d="M225.002 166.328H222.206V174.056H221.063V166.328H218.271V165.394H224.998V166.328H225.002Z" fill="white"/>
		<path d="M231.489 169.743L233.759 165.394H235.061L232.061 170.825V174.056H230.914V170.825L227.914 165.394H229.227L231.486 169.743H231.489Z" fill="white"/>
		<path d="M141.241 102.385C141.071 101.794 140.83 101.27 140.522 100.812C140.214 100.354 139.836 99.9663 139.394 99.645C138.949 99.3238 138.449 99.0801 137.881 98.9102C137.314 98.7404 136.691 98.6554 136.008 98.6554C134.732 98.6554 133.612 98.973 132.648 99.6007C131.684 100.232 130.935 101.148 130.397 102.352C129.859 103.555 129.592 105.021 129.592 106.753C129.592 108.485 129.855 109.958 130.386 111.173C130.912 112.388 131.662 113.311 132.63 113.946C133.598 114.581 134.74 114.899 136.057 114.899C137.251 114.899 138.274 114.684 139.124 114.26C139.973 113.835 140.622 113.233 141.075 112.458C141.527 111.682 141.75 110.763 141.75 109.703L142.821 109.862H136.383V105.904H146.834V109.035C146.834 111.221 146.371 113.097 145.444 114.662C144.516 116.228 143.24 117.435 141.616 118.281C139.992 119.126 138.13 119.551 136.031 119.551C133.69 119.551 131.632 119.034 129.859 118.004C128.086 116.97 126.707 115.504 125.72 113.595C124.734 111.69 124.24 109.426 124.24 106.801C124.24 104.785 124.533 102.987 125.123 101.403C125.713 99.8186 126.54 98.4782 127.604 97.3778C128.669 96.2775 129.907 95.4393 131.324 94.8633C132.737 94.2873 134.273 94.0029 135.923 94.0029C137.336 94.0029 138.656 94.206 139.873 94.6159C141.093 95.0257 142.176 95.6018 143.122 96.3476C144.068 97.0935 144.843 97.976 145.444 98.9988C146.044 100.022 146.43 101.152 146.601 102.381H141.234L141.241 102.385Z" fill="white"/>
		<path d="M108.41 145.592C108.366 147.29 107.961 149.133 106.767 150.285C105.057 151.939 102.306 152.508 99.9764 152.611C98.0367 152.696 96.008 152.375 94.2797 151.466C94.0312 151.337 91.168 149.665 91.168 149.661L93.4749 146.253C94.6097 146.74 95.1698 147.324 96.3826 147.733C97.5953 148.143 98.8044 148.35 100.006 148.35C100.829 148.35 101.49 148.239 101.99 148.018C102.491 147.796 102.858 147.497 103.092 147.12C103.325 146.744 103.44 146.312 103.44 145.824C103.44 145.226 103.236 144.717 102.821 144.296C102.409 143.875 101.857 143.48 101.167 143.114C100.477 142.749 99.6871 142.357 98.797 141.936C98.2407 141.67 97.6398 141.353 96.9945 140.987C96.3492 140.622 95.7298 140.168 95.1438 139.625C94.5541 139.082 94.0683 138.425 93.69 137.646C93.3117 136.87 93.1225 135.94 93.1225 134.854C93.1225 133.436 93.4489 132.225 94.1091 131.213C94.7655 130.205 95.7001 129.437 96.9129 128.905C98.1257 128.374 99.5536 128.108 101.204 128.108C102.45 128.108 103.633 128.252 104.757 128.54C105.881 128.828 107.053 129.238 108.28 129.77L106.645 133.691C105.554 133.248 104.575 132.904 103.707 132.661C102.84 132.417 101.949 132.295 101.037 132.295C100.414 132.295 99.88 132.395 99.4349 132.594C98.9899 132.794 98.6487 133.071 98.415 133.425C98.1813 133.78 98.0664 134.2 98.0664 134.688C98.0664 135.242 98.2333 135.714 98.5671 136.102C98.9009 136.49 99.4015 136.863 100.069 137.214C100.737 137.568 101.571 137.989 102.573 138.476C103.796 139.052 104.835 139.651 105.695 140.271C106.552 140.891 107.212 141.622 107.683 142.464C108.21 143.409 108.44 144.499 108.41 145.588V145.592Z" fill="white"/>
		<path d="M122.17 152.172H117.13V132.631H110.654V128.444H128.646V132.631H122.17V152.172Z" fill="white"/>
		<path d="M144.672 152.172H130.953V128.444H144.672V132.565H135.993V137.782H144.071V141.903H135.993V148.018H144.672V152.172Z" fill="white"/>
		<path d="M179.731 128.444L173.656 152.171H167.914L164.677 139.709C164.61 139.466 164.525 139.1 164.428 138.613C164.328 138.125 164.217 137.594 164.094 137.018C163.972 136.442 163.864 135.895 163.775 135.371C163.686 134.85 163.62 134.448 163.575 134.156C163.553 134.444 163.49 134.85 163.39 135.371C163.29 135.891 163.182 136.434 163.071 136.999C162.959 137.564 162.848 138.096 162.737 138.594C162.626 139.093 162.537 139.473 162.47 139.739L159.266 152.168H153.524L147.449 128.44H152.423L155.46 141.4C155.549 141.777 155.649 142.239 155.761 142.781C155.872 143.324 155.983 143.889 156.094 144.476C156.206 145.063 156.31 145.636 156.41 146.186C156.51 146.74 156.58 147.216 156.625 147.615C156.669 147.194 156.736 146.714 156.825 146.167C156.914 145.625 157.014 145.071 157.126 144.506C157.237 143.941 157.341 143.409 157.441 142.911C157.541 142.412 157.634 142.021 157.726 141.733L161.198 128.44H165.971L169.442 141.733C169.509 142.021 169.598 142.412 169.71 142.911C169.821 143.409 169.932 143.948 170.043 144.524C170.155 145.1 170.255 145.662 170.344 146.201C170.433 146.743 170.499 147.216 170.544 147.615C170.611 147.061 170.711 146.4 170.844 145.639C170.978 144.875 171.13 144.107 171.297 143.328C171.464 142.553 171.601 141.91 171.712 141.4L174.75 128.44H179.723L179.731 128.444Z" fill="white"/>
		<path d="M199.107 152.172L197.371 146.522H188.692L186.956 152.172H181.516L189.927 128.344H196.102L204.547 152.172H199.107ZM194.433 136.785C194.322 136.409 194.178 135.932 193.999 135.356C193.821 134.78 193.643 134.193 193.465 133.595C193.287 132.997 193.143 132.476 193.031 132.033C192.92 132.476 192.768 133.026 192.583 133.68C192.394 134.333 192.216 134.954 192.049 135.541C191.882 136.128 191.752 136.545 191.663 136.789L189.961 142.305H196.169L194.433 136.789V136.785Z" fill="white"/>
		<path d="M214.216 128.444C216.375 128.444 218.155 128.706 219.557 129.227C220.959 129.747 222.005 130.534 222.694 131.586C223.384 132.638 223.729 133.96 223.729 135.556C223.729 136.641 223.522 137.59 223.11 138.399C222.698 139.207 222.153 139.894 221.474 140.459C220.796 141.024 220.065 141.486 219.286 141.836L226.296 152.172H220.688L215.014 143.066H212.31V152.172H207.27V128.444H214.212H214.216ZM213.849 132.565H212.314V138.978H213.949C215.618 138.978 216.812 138.702 217.536 138.148C218.259 137.594 218.618 136.774 218.618 135.688C218.618 134.935 218.444 134.333 218.103 133.875C217.758 133.421 217.235 133.089 216.534 132.879C215.833 132.668 214.936 132.565 213.845 132.565H213.849Z" fill="white"/>
		<path d="M248.79 140.075C248.79 142.734 248.278 144.96 247.254 146.755C246.231 148.549 244.743 149.901 242.796 150.809C240.849 151.717 238.509 152.172 235.768 152.172H229.025V128.444H236.502C238.995 128.444 241.157 128.887 242.993 129.773C244.829 130.659 246.253 131.963 247.265 133.68C248.278 135.397 248.782 137.531 248.782 140.079L248.79 140.075ZM243.549 140.208C243.549 138.458 243.293 137.018 242.781 135.888C242.27 134.758 241.506 133.923 240.493 133.381C239.481 132.838 238.238 132.565 236.769 132.565H234.066V148.018H236.235C238.705 148.018 240.541 147.364 241.743 146.057C242.945 144.75 243.545 142.8 243.545 140.208H243.549Z" fill="white"/>
		<path d="M173.594 106.904C173.594 108.743 173.352 110.412 172.87 111.904C172.388 113.399 171.661 114.691 170.686 115.773C169.71 116.859 168.468 117.69 166.955 118.266C165.442 118.842 163.661 119.13 161.621 119.13C159.582 119.13 157.801 118.834 156.288 118.247C154.775 117.66 153.529 116.829 152.557 115.755C151.582 114.68 150.855 113.392 150.373 111.885C149.89 110.379 149.649 108.706 149.649 106.867C149.649 104.408 150.076 102.27 150.936 100.453C151.793 98.6366 153.106 97.2261 154.879 96.2143C156.652 95.2063 158.91 94.7041 161.659 94.7041C164.407 94.7041 166.625 95.21 168.383 96.2143C170.144 97.2224 171.45 98.6403 172.31 100.468C173.167 102.296 173.597 104.437 173.597 106.9L173.594 106.904ZM155.246 106.904C155.246 108.566 155.469 109.995 155.914 111.191C156.359 112.387 157.052 113.307 157.991 113.949C158.929 114.592 160.138 114.913 161.618 114.913C163.098 114.913 164.37 114.592 165.297 113.949C166.224 113.307 166.903 112.387 167.34 111.191C167.774 109.995 167.993 108.566 167.993 106.904C167.993 104.401 167.5 102.44 166.513 101.022C165.527 99.604 163.906 98.8951 161.655 98.8951C160.153 98.8951 158.933 99.2163 157.994 99.8588C157.056 100.501 156.362 101.421 155.917 102.617C155.472 103.813 155.25 105.242 155.25 106.904H155.246Z" fill="white"/>
		<path d="M201.068 106.904C201.068 108.743 200.823 110.412 200.33 111.904C199.836 113.399 199.095 114.691 198.097 115.773C197.099 116.859 195.827 117.69 194.28 118.266C192.734 118.842 190.913 119.13 188.825 119.13C186.737 119.13 184.919 118.834 183.369 118.247C181.823 117.66 180.55 116.829 179.553 115.755C178.555 114.68 177.813 113.392 177.32 111.885C176.827 110.379 176.582 108.706 176.582 106.867C176.582 104.408 177.02 102.27 177.895 100.453C178.77 98.6366 180.117 97.2261 181.926 96.2143C183.74 95.2063 186.051 94.7041 188.858 94.7041C191.666 94.7041 193.936 95.21 195.734 96.2143C197.533 97.2224 198.872 98.6403 199.747 100.468C200.623 102.296 201.06 104.437 201.06 106.9L201.068 106.904ZM182.312 106.904C182.312 108.566 182.538 109.995 182.995 111.191C183.451 112.387 184.159 113.307 185.12 113.949C186.08 114.592 187.315 114.913 188.829 114.913C190.342 114.913 191.644 114.592 192.589 113.949C193.539 113.307 194.232 112.387 194.677 111.191C195.122 109.995 195.345 108.566 195.345 106.904C195.345 104.401 194.841 102.44 193.832 101.022C192.823 99.604 191.169 98.8951 188.862 98.8951C187.326 98.8951 186.077 99.2163 185.116 99.8588C184.155 100.501 183.447 101.421 182.991 102.617C182.535 103.813 182.308 105.242 182.308 106.904H182.312Z" fill="white"/>
		<path d="M224.4 106.705C224.4 109.364 223.888 111.59 222.865 113.385C221.841 115.179 220.354 116.531 218.41 117.439C216.463 118.347 214.119 118.802 211.382 118.802H204.64V95.0737H212.117C214.609 95.0737 216.775 95.5168 218.611 96.403C220.447 97.2892 221.871 98.5927 222.883 100.31C223.896 102.027 224.4 104.161 224.4 106.709V106.705ZM219.16 106.838C219.16 105.088 218.904 103.648 218.392 102.518C217.88 101.388 217.116 100.553 216.104 100.011C215.091 99.4678 213.849 99.1945 212.38 99.1945H209.676V114.647H211.846C214.316 114.647 216.152 113.994 217.353 112.687C218.555 111.38 219.156 109.43 219.156 106.838H219.16Z" fill="white"/>
		<path d="M56.5781 120.044C56.5781 120.044 93.4079 70.8264 157.321 66.1752C221.234 61.524 243.98 90.5157 250.122 106.624C250.122 106.624 248.676 58.3023 182.959 53.6476C182.959 53.6476 99.1868 46.845 56.5781 120.044Z" fill="#2F5CB5"/>
		<path d="M100.948 220.748C86.7326 221.474 65.7349 208.355 55.1322 200.431C13.1771 169.081 27.0538 121.268 58.7581 89.8046C94.0345 54.797 142.581 40.4041 191.54 48.7489C190.139 48.5116 188.336 47.094 187.009 46.5323C182.489 44.6233 177.703 43.3127 172.901 42.3365C121.513 31.8987 65.3831 54.6198 30.8807 92.6531C28.8165 94.9299 26.8092 97.2602 24.8622 99.6373C9.74232 118.102 -1.0514 141.686 4.13267 165.915C5.49319 172.274 7.87579 178.389 10.9956 184.092C27.8782 214.931 65.3764 222.045 97.7642 220.882C98.8231 220.845 99.8821 220.798 100.941 220.742L100.948 220.748Z" fill="#2F5CB5"/>
		<path d="M248.694 34.0039L245.237 42.264C244.473 44.088 243.015 45.5392 241.183 46.2998L232.887 49.7412L241.183 53.1826C243.015 53.9432 244.473 55.3944 245.237 57.2184L248.694 65.4785L252.15 57.2184C252.914 55.3944 254.372 53.9432 256.204 53.1826L264.501 49.7412L256.204 46.2998C254.372 45.5392 252.914 44.088 252.15 42.264L248.694 34.0039ZM211.772 16.6346L212.57 19.0162L213.367 16.6346C214.369 13.6437 216.724 11.2989 219.728 10.302L222.12 9.5081L219.728 8.71422C216.724 7.71725 214.369 5.37254 213.367 2.38164L212.57 0L211.772 2.38164C210.771 5.37254 208.416 7.71725 205.412 8.71422L203.02 9.5081L205.412 10.302C208.416 11.2989 210.771 13.6437 211.772 16.6346ZM244.454 12.8092L243.753 10.7155L243.052 12.8092C242.641 14.0351 241.677 14.9951 240.445 15.405L238.342 16.1028L240.445 16.8007C241.677 17.2106 242.641 18.1706 243.052 19.3965L243.753 21.4901L244.454 19.3965C244.866 18.1706 245.83 17.2106 247.062 16.8007L249.165 16.1028L247.062 15.405C245.83 14.9951 244.866 14.0351 244.454 12.8092Z" fill="#E7F1FF"/>
	</g>
	<defs>
		<clipPath id="clip0_177_712">
			<rect width="307" height="240" fill="white" transform="translate(0.5)"/>
		</clipPath>
	</defs>
</svg>
