<svg width="221" height="161" viewBox="0 0 221 161" fill="none" xmlns="http://www.w3.org/2000/svg">
	<path d="M38.6708 124.359C38.5931 125.023 38.3468 125.537 37.9345 125.896C37.5222 126.257 36.9733 126.437 36.2879 126.437C35.5463 126.437 34.9519 126.172 34.5048 125.639C34.0577 125.106 33.8354 124.394 33.8354 123.503V122.898C33.8354 122.314 33.9399 121.8 34.1487 121.358C34.3575 120.917 34.652 120.577 35.0349 120.338C35.4178 120.1 35.8595 119.982 36.3629 119.982C37.0295 119.982 37.565 120.17 37.9666 120.542C38.3682 120.914 38.6038 121.431 38.6708 122.089H37.8381C37.7658 121.586 37.6105 121.225 37.3696 121C37.1286 120.775 36.7939 120.662 36.3629 120.662C35.8328 120.662 35.4178 120.858 35.1179 121.249C34.818 121.64 34.6681 122.196 34.6681 122.919V123.527C34.6681 124.209 34.81 124.75 35.0965 125.154C35.3803 125.556 35.7792 125.759 36.2906 125.759C36.7511 125.759 37.1045 125.655 37.3508 125.446C37.5972 125.237 37.7605 124.876 37.8408 124.357H38.6735L38.6708 124.359Z" fill="black"/>
	<path d="M46.4001 123.414C46.4001 124.03 46.2957 124.565 46.0895 125.026C45.8833 125.483 45.5888 125.834 45.2087 126.075C44.8285 126.316 44.3867 126.437 43.8807 126.437C43.3747 126.437 42.9463 126.316 42.5634 126.072C42.1805 125.829 41.8834 125.483 41.6719 125.034C41.4603 124.584 41.3506 124.062 41.3452 123.47V123.018C41.3452 122.413 41.4496 121.88 41.6611 121.417C41.8727 120.954 42.1672 120.601 42.5527 120.354C42.9356 120.108 43.3773 119.985 43.87 119.985C44.3626 119.985 44.8178 120.105 45.2006 120.349C45.5835 120.593 45.8807 120.943 46.0868 121.406C46.293 121.867 46.3974 122.405 46.3974 123.018V123.414H46.4001ZM45.5754 123.007C45.5754 122.263 45.4255 121.69 45.1257 121.294C44.8258 120.895 44.4081 120.697 43.87 120.697C43.3318 120.697 42.9356 120.895 42.633 121.294C42.3332 121.693 42.1779 122.244 42.1698 122.954V123.414C42.1698 124.137 42.3225 124.702 42.625 125.117C42.9275 125.529 43.3452 125.735 43.878 125.735C44.4108 125.735 44.8258 125.54 45.1203 125.152C45.4148 124.761 45.5647 124.204 45.5728 123.476V123.01L45.5754 123.007Z" fill="black"/>
	<path d="M50.4804 120.071L52.5339 125.195L54.5875 120.071H55.6611V126.351H54.8338V123.904L54.9114 121.265L52.8499 126.351H52.2153L50.1564 121.278L50.2394 123.904V126.351H49.4121V120.071H50.4831H50.4804Z" fill="black"/>
	<path d="M59.9613 120.071L62.0149 125.195L64.0684 120.071H65.142V126.351H64.3147V123.904L64.3924 121.265L62.3308 126.351H61.6963L59.6374 121.278L59.7204 123.904V126.351H58.8931V120.071H59.964H59.9613Z" fill="black"/>
	<path d="M71.9208 123.449H69.1979V125.674H72.3599V126.351H68.3706V120.071H72.317V120.748H69.1979V122.772H71.9208V123.449Z" fill="black"/>
	<path d="M77.4632 123.811H75.9879V126.351H75.1553V120.071H77.2356C77.9424 120.071 78.4859 120.231 78.8688 120.553C79.249 120.874 79.4391 121.342 79.4391 121.958C79.4391 122.349 79.3346 122.689 79.1231 122.981C78.9116 123.27 78.6171 123.489 78.2396 123.631L79.7148 126.298V126.348H78.8259L77.4632 123.808V123.811ZM75.9879 123.133H77.2597C77.672 123.133 77.9986 123.026 78.2423 122.815C78.4859 122.601 78.6064 122.317 78.6064 121.958C78.6064 121.57 78.4913 121.27 78.2583 121.064C78.0254 120.858 77.6934 120.751 77.2543 120.748H75.9852V123.133H75.9879Z" fill="black"/>
	<path d="M86.9864 124.359C86.9088 125.023 86.6625 125.537 86.2502 125.896C85.8378 126.257 85.289 126.437 84.6036 126.437C83.8619 126.437 83.2676 126.172 82.8205 125.639C82.3733 125.106 82.1484 124.394 82.1484 123.503V122.898C82.1484 122.314 82.2529 121.8 82.4617 121.358C82.6705 120.917 82.965 120.577 83.3479 120.338C83.7308 120.1 84.1725 119.982 84.6759 119.982C85.3425 119.982 85.878 120.17 86.2796 120.542C86.6812 120.914 86.9168 121.431 86.9838 122.089H86.1511C86.0788 121.586 85.9235 121.225 85.6826 121C85.4416 120.775 85.1069 120.662 84.6759 120.662C84.1458 120.662 83.7308 120.858 83.4309 121.249C83.131 121.64 82.9811 122.196 82.9811 122.919V123.527C82.9811 124.209 83.123 124.75 83.4068 125.154C83.6906 125.556 84.0895 125.759 84.6009 125.759C85.0614 125.759 85.4148 125.655 85.6611 125.446C85.9075 125.237 86.0708 124.876 86.1511 124.357H86.9838L86.9864 124.359Z" fill="black"/>
	<path d="M90.7719 126.351H89.9448V120.071H90.7719V126.351Z" fill="black"/>
	<path d="M97.602 124.707H94.9702L94.3785 126.351H93.5244L95.9233 120.071H96.6489L99.0532 126.351H98.2045L97.6047 124.707H97.602ZM95.2192 124.03H97.3557L96.2848 121.093L95.2192 124.03Z" fill="black"/>
	<path d="M102.497 125.674H105.474V126.351H101.664V120.071H102.497V125.674Z" fill="black"/>
	<path d="M177.926 123.428C177.217 123.224 176.7 122.973 176.376 122.675C176.052 122.378 175.891 122.011 175.891 121.572C175.891 121.077 176.09 120.668 176.483 120.346C176.879 120.022 177.393 119.862 178.025 119.862C178.456 119.862 178.842 119.945 179.179 120.111C179.517 120.277 179.779 120.507 179.964 120.801C180.148 121.096 180.242 121.415 180.242 121.763H179.41C179.41 121.382 179.289 121.083 179.048 120.866C178.807 120.649 178.464 120.539 178.025 120.539C177.616 120.539 177.297 120.63 177.07 120.809C176.842 120.989 176.727 121.24 176.727 121.559C176.727 121.816 176.837 122.033 177.053 122.21C177.27 122.386 177.64 122.55 178.162 122.697C178.684 122.844 179.094 123.005 179.388 123.181C179.683 123.358 179.902 123.564 180.044 123.8C180.186 124.035 180.258 124.314 180.258 124.632C180.258 125.141 180.06 125.548 179.664 125.856C179.268 126.161 178.738 126.316 178.071 126.316C177.64 126.316 177.236 126.233 176.863 126.067C176.489 125.901 176.202 125.676 175.999 125.387C175.795 125.101 175.693 124.774 175.693 124.407H176.526C176.526 124.788 176.665 125.087 176.946 125.307C177.227 125.526 177.602 125.636 178.071 125.636C178.507 125.636 178.842 125.548 179.075 125.368C179.308 125.189 179.426 124.948 179.426 124.64C179.426 124.332 179.319 124.094 179.102 123.926C178.885 123.757 178.494 123.591 177.929 123.428H177.926Z" fill="black"/>
	<path d="M186.632 123.326H183.91V125.551H187.072V126.228H183.08V119.948H187.026V120.625H183.907V122.649H186.63V123.326H186.632Z" fill="black"/>
	<path d="M192.176 123.688H190.7V126.228H189.868V119.948H191.948C192.655 119.948 193.201 120.108 193.581 120.43C193.961 120.751 194.154 121.219 194.154 121.835C194.154 122.226 194.047 122.566 193.838 122.858C193.627 123.147 193.332 123.366 192.955 123.508L194.43 126.175V126.225H193.541L192.178 123.685L192.176 123.688ZM190.7 123.01H191.972C192.384 123.01 192.711 122.903 192.955 122.692C193.198 122.478 193.319 122.194 193.319 121.835C193.319 121.447 193.204 121.147 192.971 120.941C192.738 120.735 192.406 120.628 191.967 120.625H190.698V123.01H190.7Z" fill="black"/>
	<path d="M199.077 125.128L200.871 119.948H201.776L199.446 126.228H198.713L196.386 119.948H197.288L199.074 125.128H199.077Z" fill="black"/>
	<path d="M205.273 126.228H204.446V119.948H205.273V126.228Z" fill="black"/>
	<path d="M213.176 124.236C213.098 124.9 212.852 125.414 212.44 125.773C212.027 126.134 211.478 126.314 210.793 126.314C210.051 126.314 209.457 126.049 209.01 125.516C208.563 124.983 208.338 124.271 208.338 123.38V122.775C208.338 122.191 208.442 121.677 208.651 121.235C208.86 120.794 209.154 120.454 209.537 120.215C209.92 119.977 210.362 119.859 210.865 119.859C211.532 119.859 212.067 120.047 212.469 120.419C212.871 120.791 213.106 121.308 213.173 121.966H212.341C212.268 121.463 212.113 121.102 211.872 120.877C211.631 120.652 211.296 120.539 210.865 120.539C210.335 120.539 209.92 120.735 209.62 121.126C209.32 121.516 209.171 122.073 209.171 122.796V123.404C209.171 124.086 209.312 124.627 209.596 125.031C209.88 125.433 210.279 125.636 210.79 125.636C211.251 125.636 211.604 125.532 211.851 125.323C212.097 125.114 212.26 124.753 212.341 124.234H213.173L213.176 124.236Z" fill="black"/>
	<path d="M219.623 123.326H216.9V125.551H220.062V126.228H216.07V119.948H220.017V120.625H216.898V122.649H219.62V123.326H219.623Z" fill="black"/>
	<path d="M114.173 123.733V126.191H113.346V119.911H115.662C116.35 119.911 116.888 120.087 117.276 120.438C117.667 120.789 117.86 121.255 117.86 121.83C117.86 122.44 117.67 122.909 117.289 123.238C116.909 123.567 116.363 123.731 115.651 123.731H114.17L114.173 123.733ZM114.173 123.056H115.662C116.103 123.056 116.443 122.952 116.679 122.743C116.915 122.534 117.032 122.232 117.032 121.838C117.032 121.463 116.915 121.163 116.679 120.939C116.443 120.714 116.119 120.599 115.71 120.588H114.173V123.056Z" fill="black"/>
	<path d="M122.99 123.653H121.514V126.193H120.682V119.913H122.762C123.469 119.913 124.012 120.074 124.395 120.395C124.775 120.716 124.965 121.185 124.965 121.8C124.965 122.191 124.861 122.531 124.649 122.823C124.438 123.112 124.143 123.332 123.766 123.474L125.241 126.14V126.191H124.352L122.99 123.65V123.653ZM121.514 122.976H122.786C123.198 122.976 123.525 122.869 123.769 122.657C124.012 122.443 124.133 122.159 124.133 121.8C124.133 121.412 124.018 121.112 123.785 120.906C123.552 120.7 123.22 120.593 122.781 120.59H121.512V122.976H121.514Z" fill="black"/>
	<path d="M132.725 123.254C132.725 123.87 132.62 124.405 132.414 124.866C132.208 125.323 131.913 125.674 131.533 125.915C131.153 126.156 130.711 126.276 130.205 126.276C129.699 126.276 129.271 126.156 128.891 125.912C128.508 125.669 128.211 125.323 127.999 124.874C127.787 124.424 127.678 123.902 127.672 123.31V122.858C127.672 122.253 127.777 121.72 127.988 121.257C128.2 120.794 128.494 120.44 128.88 120.194C129.263 119.948 129.702 119.825 130.197 119.825C130.692 119.825 131.145 119.945 131.528 120.189C131.911 120.432 132.208 120.783 132.414 121.246C132.62 121.707 132.725 122.245 132.725 122.858V123.254ZM131.903 122.85C131.903 122.106 131.753 121.533 131.453 121.136C131.153 120.738 130.735 120.539 130.197 120.539C129.659 120.539 129.263 120.738 128.96 121.136C128.66 121.535 128.505 122.087 128.497 122.796V123.257C128.497 123.979 128.65 124.544 128.952 124.959C129.255 125.372 129.672 125.578 130.205 125.578C130.738 125.578 131.153 125.382 131.447 124.994C131.742 124.603 131.892 124.046 131.9 123.318V122.852L131.903 122.85Z" fill="black"/>
	<path d="M136.564 123.733V126.191H135.736V119.911H138.052C138.74 119.911 139.278 120.087 139.667 120.438C140.058 120.789 140.25 121.255 140.25 121.83C140.25 122.44 140.06 122.909 139.68 123.238C139.3 123.567 138.754 123.731 138.042 123.731H136.561L136.564 123.733ZM136.564 123.056H138.052C138.494 123.056 138.834 122.952 139.07 122.743C139.305 122.534 139.423 122.232 139.423 121.838C139.423 121.463 139.305 121.163 139.07 120.939C138.834 120.714 138.51 120.599 138.098 120.588H136.561V123.056H136.564Z" fill="black"/>
	<path d="M146.625 123.289H143.902V125.514H147.064V126.191H143.075V119.911H147.022V120.588H143.902V122.612H146.625V123.289Z" fill="black"/>
	<path d="M152.168 123.653H150.693V126.193H149.86V119.913H151.94C152.647 119.913 153.191 120.074 153.573 120.395C153.954 120.716 154.144 121.185 154.144 121.8C154.144 122.191 154.039 122.531 153.828 122.823C153.616 123.112 153.322 123.332 152.944 123.474L154.419 126.14V126.191H153.531L152.168 123.65V123.653ZM150.693 122.976H151.964C152.377 122.976 152.703 122.869 152.947 122.657C153.191 122.443 153.311 122.159 153.311 121.8C153.311 121.412 153.196 121.112 152.963 120.906C152.73 120.7 152.398 120.593 151.959 120.59H150.69V122.976H150.693Z" fill="black"/>
	<path d="M161.067 120.588H159.048V126.191H158.224V120.588H156.208V119.911H161.064V120.588H161.067Z" fill="black"/>
	<path d="M165.75 123.064L167.388 119.911H168.328L166.162 123.849V126.191H165.335V123.849L163.169 119.911H164.117L165.747 123.064H165.75Z" fill="black"/>
	<path d="M100.6 74.2287C100.477 73.8004 100.303 73.4203 100.081 73.0883C99.8586 72.7564 99.5855 72.4753 99.2669 72.2424C98.9456 72.0095 98.5841 71.8328 98.1745 71.7096C97.7649 71.5865 97.3151 71.5249 96.8224 71.5249C95.9014 71.5249 95.0928 71.7551 94.3967 72.2102C93.7006 72.668 93.1598 73.3319 92.7716 74.2046C92.3834 75.0774 92.1906 76.1401 92.1906 77.3957C92.1906 78.6512 92.3807 79.7193 92.7635 80.6001C93.1437 81.4808 93.6846 82.1501 94.3833 82.6105C95.0821 83.071 95.9068 83.3012 96.8572 83.3012C97.7193 83.3012 98.4583 83.1459 99.0714 82.8381C99.6845 82.5302 100.153 82.0939 100.48 81.5317C100.806 80.9695 100.967 80.3029 100.967 79.5346L101.741 79.6497H97.0928V76.7799H104.638V79.0501C104.638 80.6349 104.303 81.9948 103.634 83.1299C102.964 84.2649 102.043 85.1403 100.871 85.7534C99.6979 86.3664 98.3539 86.6743 96.8385 86.6743C95.1491 86.6743 93.6631 86.2995 92.3834 85.5526C91.1036 84.803 90.1076 83.7402 89.3954 82.3562C88.6832 80.9749 88.3271 79.3338 88.3271 77.4305C88.3271 75.9688 88.5387 74.6651 88.9644 73.5166C89.3901 72.3682 89.9871 71.3964 90.7555 70.5987C91.5239 69.8009 92.4182 69.1932 93.4409 68.7756C94.461 68.358 95.5694 68.1519 96.7608 68.1519C97.7809 68.1519 98.7341 68.2991 99.6122 68.5962C100.493 68.8934 101.275 69.311 101.958 69.8518C102.64 70.3925 103.2 71.0323 103.634 71.7739C104.067 72.5154 104.346 73.3346 104.469 74.2261H100.595L100.6 74.2287Z" fill="#2F5CB5"/>
	<path d="M76.9007 105.554C76.8686 106.786 76.5767 108.121 75.7146 108.957C74.4803 110.156 72.4937 110.568 70.8124 110.643C69.4121 110.705 67.9476 110.472 66.6999 109.813C66.5205 109.72 64.4536 108.507 64.4536 108.504L66.1189 106.033C66.9382 106.387 67.3425 106.81 68.218 107.107C69.0935 107.404 69.9663 107.554 70.8338 107.554C71.4281 107.554 71.9047 107.474 72.2662 107.313C72.6276 107.152 72.8927 106.936 73.0613 106.662C73.23 106.389 73.313 106.076 73.313 105.723C73.313 105.289 73.1658 104.92 72.8659 104.615C72.5687 104.309 72.1698 104.023 71.6718 103.758C71.1738 103.493 70.6035 103.209 69.961 102.904C69.5594 102.711 69.1256 102.481 68.6598 102.216C68.1939 101.951 67.7468 101.622 67.3237 101.228C66.898 100.835 66.5473 100.358 66.2742 99.7932C66.0011 99.231 65.8646 98.5564 65.8646 97.7694C65.8646 96.7414 66.1002 95.8633 66.5768 95.1298C67.0507 94.399 67.7254 93.8422 68.6008 93.4567C69.4763 93.0712 70.5071 92.8784 71.6986 92.8784C72.5982 92.8784 73.4522 92.9828 74.2635 93.1916C75.0747 93.4005 75.9208 93.6976 76.807 94.0831L75.6263 96.9261C74.8391 96.6049 74.1323 96.3559 73.5058 96.1792C72.8793 96.0025 72.2367 95.9142 71.5781 95.9142C71.1283 95.9142 70.7427 95.9865 70.4215 96.131C70.1002 96.2756 69.8539 96.4764 69.6852 96.7334C69.5165 96.9904 69.4335 97.2955 69.4335 97.6489C69.4335 98.0505 69.554 98.3931 69.795 98.6742C70.0359 98.9553 70.3974 99.2257 70.8793 99.48C71.3612 99.737 71.9636 100.042 72.6865 100.396C73.57 100.813 74.3197 101.247 74.9409 101.697C75.5593 102.146 76.0359 102.676 76.3759 103.287C76.7561 103.972 76.9221 104.762 76.9007 105.552V105.554Z" fill="#2F5CB5"/>
	<path d="M86.8328 110.325H83.1942V96.1578H78.5195V93.1221H91.5074V96.1578H86.8328V110.325Z" fill="#2F5CB5"/>
	<path d="M103.076 110.325H93.1729V93.1221H103.076V96.1096H96.8114V99.8923H102.643V102.88H96.8114V107.313H103.076V110.325Z" fill="#2F5CB5"/>
	<path d="M128.386 93.1213L124.001 110.324H119.856L117.519 101.289C117.471 101.112 117.409 100.847 117.34 100.494C117.267 100.141 117.187 99.755 117.099 99.3374C117.01 98.9198 116.933 98.5236 116.868 98.1435C116.804 97.766 116.756 97.4742 116.724 97.2627C116.708 97.4715 116.662 97.766 116.59 98.1435C116.518 98.5209 116.44 98.9144 116.36 99.324C116.279 99.7336 116.199 100.119 116.119 100.481C116.038 100.842 115.974 101.118 115.926 101.31L113.613 110.321H109.468L105.083 93.1187H108.673L110.866 102.515C110.93 102.788 111.002 103.123 111.083 103.516C111.163 103.91 111.243 104.319 111.323 104.745C111.404 105.171 111.479 105.586 111.551 105.984C111.623 106.386 111.674 106.731 111.706 107.021C111.738 106.715 111.787 106.367 111.851 105.971C111.915 105.578 111.987 105.176 112.068 104.766C112.148 104.357 112.223 103.971 112.295 103.61C112.368 103.249 112.435 102.965 112.502 102.756L115.008 93.1187H118.453L120.959 102.756C121.008 102.965 121.072 103.249 121.152 103.61C121.232 103.971 121.313 104.362 121.393 104.78C121.473 105.197 121.546 105.604 121.61 105.995C121.674 106.389 121.722 106.731 121.754 107.021C121.803 106.619 121.875 106.14 121.971 105.588C122.068 105.034 122.178 104.477 122.298 103.912C122.418 103.35 122.518 102.884 122.598 102.515L124.791 93.1187H128.381L128.386 93.1213Z" fill="#2F5CB5"/>
	<path d="M142.373 110.324L141.12 106.228H134.855L133.602 110.324H129.674L135.746 93.0493H140.204L146.3 110.324H142.373ZM138.999 99.169C138.919 98.896 138.814 98.5506 138.686 98.133C138.557 97.7154 138.429 97.2897 138.3 96.8561C138.172 96.4224 138.067 96.0449 137.987 95.7237C137.907 96.0449 137.797 96.4438 137.663 96.9176C137.527 97.3915 137.398 97.8412 137.278 98.2669C137.157 98.6925 137.063 98.995 136.999 99.1717L135.77 103.171H140.252L138.999 99.1717V99.169Z" fill="#2F5CB5"/>
	<path d="M153.28 93.1221C154.839 93.1221 156.124 93.3121 157.136 93.6896C158.148 94.0671 158.903 94.6373 159.401 95.4002C159.899 96.1632 160.148 97.1216 160.148 98.278C160.148 99.0651 159.998 99.7531 159.701 100.339C159.403 100.926 159.01 101.424 158.52 101.833C158.03 102.243 157.503 102.577 156.94 102.832L162.001 110.325H157.952L153.856 103.723H151.904V110.325H148.266V93.1221H153.278H153.28ZM153.015 96.1096H151.907V100.76H153.088C154.292 100.76 155.154 100.559 155.677 100.157C156.199 99.7558 156.458 99.1615 156.458 98.3744C156.458 97.8283 156.333 97.3919 156.086 97.06C155.837 96.7307 155.46 96.4898 154.954 96.3372C154.448 96.1846 153.8 96.1096 153.013 96.1096H153.015Z" fill="#2F5CB5"/>
	<path d="M178.239 101.555C178.239 103.482 177.869 105.096 177.13 106.397C176.391 107.699 175.318 108.678 173.912 109.337C172.507 109.995 170.817 110.325 168.839 110.325H163.971V93.1221H169.369C171.168 93.1221 172.729 93.4433 174.054 94.0858C175.379 94.7283 176.408 95.6733 177.138 96.9181C177.869 98.1629 178.234 99.7103 178.234 101.557L178.239 101.555ZM174.456 101.651C174.456 100.382 174.271 99.3381 173.902 98.519C173.532 97.6998 172.981 97.0948 172.25 96.7013C171.519 96.3077 170.622 96.1096 169.562 96.1096H167.61V107.313H169.176C170.959 107.313 172.284 106.839 173.152 105.892C174.019 104.944 174.453 103.53 174.453 101.651H174.456Z" fill="#2F5CB5"/>
	<path d="M123.955 77.5056C123.955 78.8387 123.781 80.0488 123.433 81.1303C123.085 82.2145 122.561 83.1515 121.856 83.9358C121.152 84.7229 120.255 85.3252 119.163 85.7428C118.071 86.1604 116.785 86.3693 115.313 86.3693C113.84 86.3693 112.555 86.1551 111.463 85.7294C110.371 85.3038 109.471 84.7015 108.769 83.9224C108.065 83.1434 107.541 82.2091 107.192 81.1169C106.844 80.0247 106.67 78.812 106.67 77.4788C106.67 75.6959 106.978 74.1459 107.599 72.8288C108.218 71.5117 109.166 70.4891 110.445 69.7556C111.725 69.0247 113.356 68.6606 115.34 68.6606C117.324 68.6606 118.925 69.0274 120.194 69.7556C121.466 70.4864 122.408 71.5144 123.029 72.8395C123.648 74.1646 123.958 75.7173 123.958 77.5029L123.955 77.5056ZM110.711 77.5056C110.711 78.7102 110.871 79.7463 111.192 80.6136C111.514 81.481 112.014 82.1476 112.692 82.6134C113.369 83.0792 114.242 83.3121 115.31 83.3121C116.379 83.3121 117.297 83.0792 117.966 82.6134C118.636 82.1476 119.126 81.481 119.441 80.6136C119.755 79.7463 119.913 78.7102 119.913 77.5056C119.913 75.6905 119.557 74.269 118.844 73.2411C118.132 72.2131 116.962 71.6991 115.337 71.6991C114.253 71.6991 113.372 71.932 112.694 72.3978C112.017 72.8636 111.516 73.5302 111.195 74.3975C110.874 75.2649 110.713 76.3009 110.713 77.5056H110.711Z" fill="#2F5CB5"/>
	<path d="M143.789 77.5056C143.789 78.8387 143.612 80.0488 143.256 81.1303C142.9 82.2145 142.364 83.1515 141.644 83.9358C140.924 84.7229 140.006 85.3252 138.889 85.7428C137.773 86.1604 136.458 86.3693 134.951 86.3693C133.443 86.3693 132.132 86.1551 131.012 85.7294C129.896 85.3038 128.978 84.7015 128.257 83.9224C127.537 83.1434 127.002 82.2091 126.646 81.1169C126.289 80.0247 126.113 78.812 126.113 77.4788C126.113 75.6959 126.429 74.1459 127.061 72.8288C127.692 71.5117 128.664 70.4891 129.971 69.7556C131.28 69.0247 132.948 68.6606 134.975 68.6606C137.002 68.6606 138.64 69.0274 139.939 69.7556C141.237 70.4864 142.204 71.5144 142.836 72.8395C143.467 74.1646 143.783 75.7173 143.783 77.5029L143.789 77.5056ZM130.249 77.5056C130.249 78.7102 130.413 79.7463 130.742 80.6136C131.071 81.481 131.583 82.1476 132.276 82.6134C132.97 83.0792 133.861 83.3121 134.953 83.3121C136.046 83.3121 136.986 83.0792 137.668 82.6134C138.354 82.1476 138.854 81.481 139.176 80.6136C139.497 79.7463 139.658 78.7102 139.658 77.5056C139.658 75.6905 139.293 74.269 138.565 73.2411C137.837 72.2131 136.643 71.6991 134.978 71.6991C133.869 71.6991 132.967 71.932 132.273 72.3978C131.58 72.8636 131.069 73.5302 130.739 74.3975C130.41 75.2649 130.247 76.3009 130.247 77.5056H130.249Z" fill="#2F5CB5"/>
	<path d="M160.633 77.3604C160.633 79.2879 160.263 80.9021 159.524 82.2032C158.785 83.5042 157.712 84.484 156.309 85.1426C154.903 85.8011 153.211 86.1304 151.235 86.1304H146.368V68.9277H151.765C153.564 68.9277 155.128 69.249 156.453 69.8915C157.779 70.534 158.807 71.479 159.538 72.7238C160.269 73.9686 160.633 75.5159 160.633 77.3631V77.3604ZM156.85 77.4568C156.85 76.1879 156.665 75.1438 156.295 74.3246C155.926 73.5055 155.374 72.9005 154.643 72.5069C153.912 72.1134 153.016 71.9153 151.955 71.9153H150.004V83.1187H151.57C153.353 83.1187 154.678 82.6449 155.546 81.6972C156.413 80.7495 156.847 79.3361 156.847 77.4568H156.85Z" fill="#2F5CB5"/>
	<path d="M39.4824 87.0318C39.4824 87.0318 66.0695 51.3487 112.208 47.9766C158.346 44.6045 174.767 65.6235 179.2 77.3022C179.2 77.3022 178.156 42.2688 130.716 38.8941C130.716 38.8941 70.2413 33.9623 39.4824 87.0318Z" fill="#2F5CB5"/>
	<path d="M71.5126 160.043C61.2508 160.568 46.0928 151.057 38.4388 145.313C8.1517 122.584 18.1692 87.9197 41.0562 65.1084C66.522 39.7279 101.567 29.293 136.91 35.343C135.899 35.171 134.598 34.1432 133.64 33.736C130.376 32.352 126.922 31.4018 123.455 30.694C86.3586 23.1266 45.8388 39.5994 20.9318 67.1736C19.4416 68.8242 17.9926 70.5137 16.5871 72.2371C5.67213 85.6242 -2.11978 102.722 1.62256 120.288C2.60472 124.899 4.32469 129.332 6.57687 133.467C18.7643 155.825 45.8339 160.983 69.2145 160.139C69.9789 160.113 70.7433 160.079 71.5078 160.038L71.5126 160.043Z" fill="#2F5CB5"/>
	<path d="M178.169 24.6528L175.673 30.6414C175.122 31.9638 174.069 33.0159 172.747 33.5674L166.758 36.0624L172.747 38.5574C174.069 39.1088 175.122 40.1609 175.673 41.4834L178.169 47.4719L180.664 41.4834C181.215 40.1609 182.268 39.1088 183.59 38.5574L189.579 36.0624L183.59 33.5674C182.268 33.0159 181.215 31.9638 180.664 30.6414L178.169 24.6528ZM151.515 12.0601L152.091 13.7867L152.667 12.0601C153.39 9.89165 155.09 8.19173 157.258 7.46893L158.985 6.89337L157.258 6.31781C155.09 5.59501 153.39 3.89509 152.667 1.72669L152.091 0L151.515 1.72669C150.792 3.89509 149.092 5.59501 146.924 6.31781L145.197 6.89337L146.924 7.46893C149.092 8.19173 150.792 9.89165 151.515 12.0601ZM175.108 9.28664L174.602 7.76876L174.096 9.28664C173.799 10.1754 173.103 10.8715 172.214 11.1686L170.696 11.6746L172.214 12.1805C173.103 12.4777 173.799 13.1737 174.096 14.0625L174.602 15.5804L175.108 14.0625C175.405 13.1737 176.102 12.4777 176.99 12.1805L178.509 11.6746L176.99 11.1686C176.102 10.8715 175.405 10.1754 175.108 9.28664Z" fill="#2F5CB5"/>
</svg>
