<svg width="16" height="12" viewBox="0 0 16 12" xmlns="http://www.w3.org/2000/svg">
	<path d="M14.7845 6.59689L9.72195 11.6594C9.56345 11.8179 9.34846 11.907 9.1243 11.907C8.90013 11.907 8.68515 11.8179 8.52664 11.6594C8.36813 11.5009 8.27908 11.2859 8.27908 11.0617C8.27908 10.8376 8.36813 10.6226 8.52664 10.4641L12.1484 6.84369H1.8125C1.58872 6.84369 1.37411 6.7548 1.21588 6.59656C1.05764 6.43833 0.96875 6.22372 0.96875 5.99994C0.96875 5.77616 1.05764 5.56155 1.21588 5.40332C1.37411 5.24508 1.58872 5.15619 1.8125 5.15619H12.1484L8.52805 1.53369C8.36954 1.37518 8.28049 1.1602 8.28049 0.936034C8.28049 0.711869 8.36954 0.496886 8.52805 0.338377C8.68655 0.179869 8.90154 0.0908203 9.1257 0.0908203C9.34987 0.0908203 9.56485 0.179869 9.72336 0.338377L14.7859 5.40088C14.8645 5.47937 14.9269 5.57263 14.9695 5.67531C15.012 5.77798 15.0338 5.88804 15.0337 5.99918C15.0335 6.11031 15.0115 6.22032 14.9687 6.3229C14.9259 6.42547 14.8633 6.51859 14.7845 6.59689Z" />
</svg>
